<svg width="35" height="35" viewBox="0 0 35 35" fill="none" xmlns="http://www.w3.org/2000/svg">
<path d="M1 5.58333C1 21.2774 13.7226 34 29.4167 34C30.1247 34 30.8267 33.9741 31.5219 33.9232C32.3196 33.8647 32.7183 33.8356 33.0815 33.6266C33.3822 33.4535 33.6673 33.1466 33.818 32.834C34 32.4567 34 32.0165 34 31.1363V25.9713C34 25.231 34 24.8608 33.8781 24.5437C33.7707 24.2634 33.5957 24.0138 33.3691 23.8169C33.1127 23.594 32.7647 23.4675 32.0691 23.2145L26.19 21.0767C25.3806 20.7824 24.9758 20.6352 24.5919 20.6601C24.2533 20.6821 23.9275 20.7978 23.6507 20.994C23.3368 21.2164 23.1153 21.5856 22.6722 22.3242L21.1667 24.8333C16.3085 22.6332 12.3702 18.6897 10.1667 13.8333L12.6758 12.3278C13.4143 11.8847 13.7836 11.6632 14.006 11.3493C14.2022 11.0725 14.3179 10.7467 14.3399 10.4081C14.3648 10.0242 14.2176 9.61947 13.9234 8.81009L11.7855 2.93088C11.5325 2.23523 11.406 1.88739 11.1831 1.63085C10.9862 1.40423 10.7366 1.22944 10.4564 1.12183C10.1391 1 9.76898 1 9.02875 1H3.86368C2.98345 1 2.54332 1 2.16596 1.18196C1.85342 1.33268 1.54659 1.61785 1.37345 1.91855C1.16441 2.28163 1.13521 2.68047 1.0768 3.47817C1.0259 4.17324 1 4.87526 1 5.58333Z" fill="white" stroke="white" stroke-width="1.5" stroke-linecap="round" stroke-linejoin="round"/>
</svg>
