<svg width="60" height="60" viewBox="0 0 60 60" fill="none" xmlns="http://www.w3.org/2000/svg">
<g id="Pigeon ICON">
<rect width="60" height="60" rx="13.28" fill="url(#paint0_linear_128_106)"/>
<g id="Group">
<path id="Vector" d="M45.047 13.7596L45.0467 13.7594C44.7122 13.5027 44.245 13.0539 43.9892 12.7021C43.5392 12.0852 42.7175 11.267 41.531 11.2503L41.5308 11.2503C39.6396 11.2223 36.8216 12.9485 36.604 16.7962L36.604 16.7963C36.489 18.8244 35.7841 21.3124 34.8763 23.4495C34.4217 24.5197 33.9134 25.5088 33.3974 26.3138C32.8851 27.113 32.3515 27.7529 31.8397 28.1009L31.8396 28.101C31.391 28.4056 30.8526 28.9059 30.209 29.527C30.0916 29.6402 29.9711 29.7571 29.8474 29.8772C29.2987 30.4095 28.6876 31.0025 28.0174 31.5995C26.3749 33.0628 24.3541 34.573 21.9394 35.3397L21.9393 35.3397C20.7508 35.7168 19.4882 36.0606 18.2683 36.3877C18.1358 36.4233 18.0039 36.4586 17.8726 36.4938C16.7926 36.7829 15.7574 37.0601 14.8415 37.3389C13.8112 37.6526 12.9497 37.9633 12.354 38.287C12.0558 38.449 11.839 38.6065 11.7015 38.7576C11.566 38.9063 11.5217 39.032 11.5269 39.1424C11.5303 39.2143 11.5638 39.2888 11.6614 39.3705C11.7635 39.4561 11.9238 39.538 12.1458 39.6101C12.5887 39.754 13.2084 39.8376 13.9031 39.8782C15.287 39.959 16.8964 39.866 17.8108 39.7955C17.9167 39.7872 18.0109 39.785 18.0856 39.7925C18.1213 39.7961 18.1684 39.8034 18.2144 39.8219C18.2497 39.8361 18.3588 39.8871 18.389 40.0197C18.4193 40.1525 18.3427 40.2458 18.3169 40.274C18.2833 40.3106 18.2438 40.3374 18.2131 40.356C18.1489 40.395 18.0628 40.4335 17.9635 40.4716L17.9629 40.4718C16.955 40.8555 15.0104 41.6232 13.3124 42.4479C12.4623 42.8608 11.6828 43.2838 11.1152 43.6762C10.8308 43.8728 10.6085 44.0558 10.4581 44.2197C10.3016 44.3903 10.2536 44.5072 10.2502 44.5731L45.047 13.7596ZM45.047 13.7596C45.4262 14.0495 45.6582 14.3684 45.7981 14.633L45.7987 14.634C45.8301 14.6927 45.8332 14.7285 45.8323 14.7436C45.8316 14.7557 45.8285 14.7616 45.8223 14.7681C45.8043 14.7872 45.7304 14.8313 45.5732 14.813L45.573 14.813C44.4527 14.6833 43.694 15.0221 43.2325 15.375C43.0292 15.5299 42.8575 15.7783 42.7323 16.0242C42.6055 16.2731 42.5105 16.5505 42.4792 16.7857C42.3838 17.5002 42.4352 18.2375 42.5082 18.7902C42.5448 19.0678 42.5873 19.3018 42.6208 19.4669C42.6375 19.5495 42.652 19.6149 42.6625 19.6601C42.6677 19.6828 42.6719 19.7003 42.6748 19.7124L42.6782 19.7265L42.6792 19.7304L42.6792 19.7305L42.6793 19.7307L42.6795 19.7315L42.6796 19.7319L42.6796 19.7319L42.6796 19.732M45.047 13.7596L42.6796 19.732M33.1516 43.7928L33.1525 43.7942L33.162 43.8089C33.1706 43.8222 33.1839 43.8424 33.2018 43.8687C33.2376 43.9212 33.2916 43.998 33.363 44.0923C33.506 44.2811 33.7179 44.5391 33.9919 44.8135L34.0072 44.8288L34.0196 44.8465L33.815 44.9902L34.0196 44.8465L34.0197 44.8466L34.0198 44.8468L34.0203 44.8475L34.0223 44.8504L34.0299 44.8612L34.0571 44.9C34.0796 44.9323 34.1101 44.9759 34.1414 45.021C34.1986 45.1035 34.2738 45.2126 34.2945 45.2491L34.3027 45.2634L34.3088 45.2787L34.3656 45.4188C34.5218 45.8045 34.5363 46.2331 34.4065 46.6285L34.3592 46.7727L34.2095 46.7972C33.9985 46.8319 33.7886 46.8732 33.5961 46.928C33.6841 46.9653 33.7785 47.0322 33.8282 47.1372C33.9114 47.1237 34.033 47.088 34.1815 47.0253C34.1816 47.0253 34.1816 47.0253 34.1817 47.0253L34.2789 47.2556L33.1516 43.7928ZM33.1516 43.7928C32.3133 42.3589 31.0786 41.739 29.3756 41.5165C27.8866 41.322 26.0054 41.4273 23.6749 41.5578C23.3745 41.5746 23.0666 41.5918 22.7511 41.6089C22.7511 41.6089 22.7511 41.6089 22.7511 41.6089L33.1516 43.7928ZM42.6796 19.732L42.6808 19.7368L42.6856 19.7565L42.7044 19.834C42.7209 19.9023 42.7449 20.003 42.7753 20.1326C42.8361 20.3917 42.922 20.7659 43.0227 21.2256C43.2239 22.1453 43.4836 23.4061 43.7174 24.7715C43.9513 26.1376 44.1588 27.6048 44.2565 28.938C44.3547 30.278 44.34 31.4579 44.1433 32.2621L44.3862 32.3215L44.1433 32.2621C43.7449 33.8917 42.9144 35.034 41.8084 36.0669C41.1008 36.7277 40.2969 37.3307 39.4217 37.9872C38.9077 38.3728 38.3691 38.7769 37.8109 39.2219L37.8109 39.222C35.7607 40.8574 35.0601 42.6676 35.1289 44.0026L35.1333 44.0869L35.1615 44.1203C35.1677 44.1396 35.1757 44.1664 35.1854 44.2002C35.3964 44.9365 35.7947 45.6168 36.3868 46.1241L36.4077 46.142L36.432 46.1549C37.1713 46.5486 38.1936 46.5398 39.3392 46.2684L39.3395 46.2684C39.8716 46.1417 40.2529 46.1485 40.5187 46.2011C40.0831 46.3021 39.7339 46.4756 39.4707 46.6487C39.2321 46.8048 39.1048 47.0627 39.1607 47.3186C39.2186 47.5835 39.4529 47.7567 39.7482 47.77L39.7483 47.77C40.1263 47.787 40.5154 47.7104 40.8953 47.6356C40.9217 47.6303 40.9482 47.6251 40.9746 47.62C41.3897 47.5387 41.8128 47.4622 42.2778 47.4756L42.2781 47.4756C42.3537 47.4777 42.421 47.4813 42.4807 47.4861C42.3702 47.5372 42.249 47.5797 42.149 47.5999L42.1487 47.5999C41.6086 47.7095 40.9241 47.8977 40.2324 48.0879C40.0688 48.1329 39.9048 48.178 39.7422 48.2222L39.7421 48.2223C39.1731 48.3773 38.5012 48.3457 37.8831 48.2405C37.269 48.1359 36.731 47.9626 36.4417 47.8542C36.4416 47.8542 36.4416 47.8542 36.4415 47.8541L36.3537 48.0882L42.6796 19.732ZM33.1522 47.1222C33.1522 47.1221 33.1525 47.1215 33.1535 47.1203C33.1527 47.1216 33.1522 47.1222 33.1522 47.1222Z" fill="#7D5DEC" stroke="black" stroke-width="0.5"/>
</g>
<circle id="Ellipse 21" cx="41.5" cy="13.5" r="0.5" stroke="black" stroke-width="0.3"/>
</g>
<defs>
<linearGradient id="paint0_linear_128_106" x1="30" y1="0" x2="30" y2="60" gradientUnits="userSpaceOnUse">
<stop stop-color="#313131"/>
<stop offset="1" stop-color="#141514"/>
</linearGradient>
</defs>
</svg>
